# This file uses centimeters as units for non-parametric coordinates.

v -0.323187 0.000000 0.323187
v 0.323187 0.000000 0.323187
v -0.323187 0.544688 0.313266
v 0.323187 0.540746 0.323187
v -0.318229 0.541971 -0.323530
v 0.320766 0.548435 -0.318585
v -0.323187 0.000000 -0.323187
v 0.323187 0.000000 -0.323187
v 0.000000 0.548409 0.321925
v 0.000326 0.549088 -0.322645
v 0.000000 0.535867 0.000000
v -0.322541 0.548584 -0.001306
v 0.322879 0.548941 0.000585
v 0.322879 0.565088 0.000585
v 0.000325 0.565237 -0.322648
v -0.322541 0.564731 -0.001296
v 0.000000 0.564554 0.321935
v 0.316197 0.336112 0.307681
v -0.309313 0.239308 -0.311940
v 0.314165 0.280195 -0.309451
v -0.281288 0.337983 0.303004
v -0.310038 0.333045 0.271479
v 0.315861 0.216839 -0.312443
v 0.330407 0.246616 -0.326369
v -0.311521 0.295475 0.277312
v -0.286119 0.299009 0.305331
v -0.300080 0.310684 0.264934
v -0.273004 0.314920 0.294706
vt 0.652886 0.171505
vt 0.447056 0.171030
vt 0.655282 0.166265
vt 0.660801 0.126787
vt 0.362559 0.320690
vt 0.363566 0.402154
vt 0.761476 0.115990
vt 0.874212 0.158499
vt 0.871352 0.103274
vt 0.134335 0.111914
vt 0.236430 0.170379
vt 0.235590 0.178251
vt 0.556403 0.130776
vt 0.449217 0.132842
vt 0.445267 0.401242
vt 0.281814 0.403420
vt 0.344448 0.127679
vt 0.239719 0.120899
vt 0.364495 0.483939
vt 0.623639 0.481890
vt 0.666424 0.231674
vt 0.883998 0.201002
vt 0.231496 0.224597
vt 0.671905 0.165630
vt 0.674315 0.170733
vt 0.234890 0.184994
vt 0.670920 0.176083
vt 0.657090 0.176282
vt 0.025380 0.158343
vt 0.462050 0.320294
vt 0.015625 0.201240
vt 0.281823 0.322793
vt 0.556280 0.127933
vt 0.364675 0.320776
vt 0.761103 0.113074
vt 0.026611 0.103200
vt 0.282835 0.483928
vt 0.281883 0.401304
vt 0.134551 0.109010
vt 0.444502 0.483060
vt 0.362378 0.483860
vt 0.445709 0.320296
vt 0.344530 0.124791
vt 0.445197 0.403358
vt 0.623643 0.320297
vt 0.447826 0.232112
vt 0.462046 0.481887
vn -0.092263 0.095836 0.991112
vn 0.615796 0.014103 0.787779
vn -0.070344 -0.096611 0.992833
vn -0.010461 0.999187 -0.038928
vn 0.014481 0.999137 -0.038926
vn -0.001172 0.999996 0.002501
vn -0.010573 0.999856 -0.013244
vn 0.002885 0.006087 -0.999977
vn 0.005623 -0.040151 -0.999178
vn 0.006986 -0.038636 -0.999229
vn 0.823729 0.049989 -0.564776
vn 0.701620 0.031442 -0.711858
vn -0.008169 0.999799 0.018320
vn -0.033397 0.999274 0.018310
vn -0.033358 0.999426 -0.005938
vn 0.033851 0.999376 0.010056
vn 0.008436 0.999858 -0.014571
vn 0.033948 0.999318 -0.014537
vn 0.005515 0.999800 0.019217
vn 0.005464 0.998976 0.044912
vn -0.019172 0.998808 0.044880
vn 0.999555 -0.029723 -0.002500
vn 0.999502 -0.031518 -0.001754
vn 0.330411 -0.083917 0.940099
vn -0.011205 -0.072067 0.997337
vn -0.026161 -0.050938 0.998359
vn -0.943958 -0.067296 0.323134
vn 0.000000 -1.000000 0.000000
vn 0.000000 -1.000000 0.000000
vn 0.000000 -1.000000 0.000000
vn 0.000000 -1.000000 0.000000
vn 0.927279 -0.039078 -0.372326
vn -0.999514 -0.028416 -0.012791
vn -0.999693 0.024394 -0.004418
vn -0.998917 -0.046514 -0.000649
vn -0.999514 -0.028416 -0.012791
vn 0.012597 -0.032401 -0.999395
vn -0.997028 -0.071862 0.027757
vn -0.994596 0.074875 0.071926
vn 0.649206 0.056916 0.758480
vn 0.762171 0.050715 -0.645386
vn 0.786163 0.001932 -0.618016
vn 0.000455 0.048146 -0.998840
vn -0.998866 0.047445 -0.003942
vn -0.627376 0.070899 0.775482
vn -0.997965 0.062059 0.014641
vn -0.022402 0.063777 0.997713
s 1
f 28/1/1 18/2/2 21/3/3
s 2
f 3/32/4 17/5/5 11/6/6 12/38/7
s 1
f 19/29/8 5/36/9 10/10/10 20/11/11
f 18/2/2 24/12/12 20/11/11
s 2
f 9/34/13 4/42/14 14/15/15 11/6/6
s 1
f 24/12/12 19/29/8 20/11/11
s 2
f 16/16/16 11/6/6 10/41/17 5/37/18
f 11/6/6 13/44/19 6/40/20 15/19/21
s 1
f 13/17/22 14/43/23 4/14/24 18/2/2
s 2
f 13/44/19 11/6/6 14/15/15
f 10/41/17 11/6/6 15/19/21
f 12/38/7 11/6/6 16/16/16
s 1
f 9/13/25 17/33/26 3/4/27 21/3/3
s 2
f 9/34/13 11/6/6 17/5/5
s off
f 2/20/28 1/47/29 7/30/30 8/45/31
s 1
f 9/13/25 21/3/3 18/2/2 4/14/24
f 13/17/22 18/2/2 20/11/11 6/18/32
f 5/9/33 19/8/34 12/7/35 16/35/36
f 6/18/32 20/11/11 10/10/10 15/39/37
f 22/24/38 3/4/27 12/7/35 19/8/34
f 19/8/34 27/25/39 22/24/38
f 21/3/3 3/4/27 22/24/38
f 21/3/3 22/24/38 27/25/39 28/1/1
f 2/46/40 8/23/41 23/26/42 18/2/2
f 7/31/43 19/29/8 23/26/42 8/23/41
f 18/2/2 23/26/42 24/12/12
f 23/26/42 19/29/8 24/12/12
f 7/22/44 1/21/45 25/27/46 19/8/34
f 26/28/47 25/27/46 1/21/45
f 1/21/45 2/46/40 18/2/2 26/28/47
f 19/8/34 25/27/46 27/25/39
f 28/1/1 27/25/39 25/27/46 26/28/47
f 26/28/47 18/2/2 28/1/1
